<svg xmlns="http://www.w3.org/2000/svg" viewBox="0 0 32 32" width="32" height="32">
  <defs>
    <linearGradient id="snakeGradient" x1="0%" y1="0%" x2="100%" y2="100%">
      <stop offset="0%" style="stop-color:#38a169;stop-opacity:1" />
      <stop offset="100%" style="stop-color:#48bb78;stop-opacity:1" />
    </linearGradient>
    <linearGradient id="foodGradient" x1="0%" y1="0%" x2="100%" y2="100%">
      <stop offset="0%" style="stop-color:#e53e3e;stop-opacity:1" />
      <stop offset="100%" style="stop-color:#fc8181;stop-opacity:1" />
    </linearGradient>
  </defs>
  
  <!-- 背景 -->
  <rect width="32" height="32" rx="6" fill="#1a202c"/>
  
  <!-- 网格线 -->
  <g stroke="#2d3748" stroke-width="0.5" opacity="0.3">
    <line x1="8" y1="0" x2="8" y2="32"/>
    <line x1="16" y1="0" x2="16" y2="32"/>
    <line x1="24" y1="0" x2="24" y2="32"/>
    <line x1="0" y1="8" x2="32" y2="8"/>
    <line x1="0" y1="16" x2="32" y2="16"/>
    <line x1="0" y1="24" x2="32" y2="24"/>
  </g>
  
  <!-- 蛇身 -->
  <rect x="9" y="17" width="6" height="6" rx="1" fill="url(#snakeGradient)" opacity="0.8"/>
  <rect x="17" y="17" width="6" height="6" rx="1" fill="url(#snakeGradient)" opacity="0.9"/>
  
  <!-- 蛇头 -->
  <rect x="25" y="17" width="6" height="6" rx="1" fill="url(#snakeGradient)"/>
  
  <!-- 蛇头眼睛 -->
  <circle cx="27" cy="19" r="0.8" fill="white"/>
  <circle cx="29" cy="19" r="0.8" fill="white"/>
  <circle cx="27" cy="19" r="0.4" fill="#1a202c"/>
  <circle cx="29" cy="19" r="0.4" fill="#1a202c"/>
  
  <!-- 食物 -->
  <rect x="9" y="9" width="6" height="6" rx="1" fill="url(#foodGradient)"/>
  <rect x="10" y="10" width="2" height="2" rx="0.5" fill="#fc8181" opacity="0.8"/>
</svg>